<mxfile host="65bd71144e" modified="2020-12-17T07:32:02.506Z" agent="5.0 (Windows NT 10.0; Win64; x64) AppleWebKit/537.36 (KHTML, like Gecko) Code/1.52.1 Chrome/83.0.4103.122 Electron/9.3.5 Safari/537.36" etag="UrSfi5GgkZDz4y6zI996" version="13.10.0" type="embed">
    <diagram id="_k7g421W1Rz4_D0PyPqR" name="Page-1">
        <mxGraphModel dx="1817" dy="575" grid="1" gridSize="10" guides="1" tooltips="1" connect="1" arrows="1" fold="1" page="1" pageScale="1" pageWidth="827" pageHeight="1169" math="0" shadow="0">
            <root>
                <mxCell id="0"/>
                <mxCell id="1" parent="0"/>
                <mxCell id="2" value=":Server" style="shape=umlLifeline;perimeter=lifelinePerimeter;whiteSpace=wrap;html=1;container=1;collapsible=0;recursiveResize=0;outlineConnect=0;" parent="1" vertex="1">
                    <mxGeometry x="340" y="60" width="100" height="1420" as="geometry"/>
                </mxCell>
                <mxCell id="16" value="" style="html=1;points=[];perimeter=orthogonalPerimeter;" parent="2" vertex="1">
                    <mxGeometry x="45" y="40" width="10" height="1340" as="geometry"/>
                </mxCell>
                <mxCell id="4" value=":Player" style="shape=umlLifeline;perimeter=lifelinePerimeter;whiteSpace=wrap;html=1;container=1;collapsible=0;recursiveResize=0;outlineConnect=0;" parent="1" vertex="1">
                    <mxGeometry x="-200" y="60" width="100" height="1420" as="geometry"/>
                </mxCell>
                <mxCell id="14" value="" style="html=1;points=[];perimeter=orthogonalPerimeter;" parent="4" vertex="1">
                    <mxGeometry x="45" y="40" width="10" height="1340" as="geometry"/>
                </mxCell>
                <mxCell id="5" value=":Controller" style="shape=umlLifeline;perimeter=lifelinePerimeter;whiteSpace=wrap;html=1;container=1;collapsible=0;recursiveResize=0;outlineConnect=0;" parent="1" vertex="1">
                    <mxGeometry x="-380" y="60" width="100" height="1420" as="geometry"/>
                </mxCell>
                <mxCell id="13" value="" style="html=1;points=[];perimeter=orthogonalPerimeter;" parent="5" vertex="1">
                    <mxGeometry x="45" y="40" width="10" height="1340" as="geometry"/>
                </mxCell>
                <mxCell id="6" value=":GUI" style="shape=umlLifeline;perimeter=lifelinePerimeter;whiteSpace=wrap;html=1;container=1;collapsible=0;recursiveResize=0;outlineConnect=0;" parent="1" vertex="1">
                    <mxGeometry x="-560" y="60" width="100" height="1420" as="geometry"/>
                </mxCell>
                <mxCell id="12" value="" style="html=1;points=[];perimeter=orthogonalPerimeter;" parent="6" vertex="1">
                    <mxGeometry x="45" y="40" width="10" height="1340" as="geometry"/>
                </mxCell>
                <mxCell id="7" value=":Game" style="shape=umlLifeline;perimeter=lifelinePerimeter;whiteSpace=wrap;html=1;container=1;collapsible=0;recursiveResize=0;outlineConnect=0;" parent="1" vertex="1">
                    <mxGeometry x="520" y="60" width="100" height="1420" as="geometry"/>
                </mxCell>
                <mxCell id="17" value="" style="html=1;points=[];perimeter=orthogonalPerimeter;" parent="7" vertex="1">
                    <mxGeometry x="45" y="40" width="10" height="1340" as="geometry"/>
                </mxCell>
                <mxCell id="8" value="" style="shape=umlLifeline;participant=umlActor;perimeter=lifelinePerimeter;whiteSpace=wrap;html=1;container=1;collapsible=0;recursiveResize=0;verticalAlign=top;spacingTop=36;outlineConnect=0;" parent="1" vertex="1">
                    <mxGeometry x="-710" y="60" width="20" height="1420" as="geometry"/>
                </mxCell>
                <mxCell id="38" value="" style="html=1;points=[];perimeter=orthogonalPerimeter;" parent="8" vertex="1">
                    <mxGeometry x="5" y="40" width="10" height="1340" as="geometry"/>
                </mxCell>
                <mxCell id="19" value="Moves not his Piece" style="html=1;verticalAlign=bottom;endArrow=block;" parent="1" source="38" target="6" edge="1">
                    <mxGeometry width="80" relative="1" as="geometry">
                        <mxPoint x="-680" y="140" as="sourcePoint"/>
                        <mxPoint x="-570" y="153" as="targetPoint"/>
                        <Array as="points">
                            <mxPoint x="-610" y="140"/>
                        </Array>
                    </mxGeometry>
                </mxCell>
                <mxCell id="26" value=":Client" style="shape=umlLifeline;perimeter=lifelinePerimeter;whiteSpace=wrap;html=1;container=1;collapsible=0;recursiveResize=0;outlineConnect=0;" parent="1" vertex="1">
                    <mxGeometry x="160" y="60" width="100" height="1420" as="geometry"/>
                </mxCell>
                <mxCell id="27" value="" style="html=1;points=[];perimeter=orthogonalPerimeter;" parent="26" vertex="1">
                    <mxGeometry x="45" y="40" width="10" height="1340" as="geometry"/>
                </mxCell>
                <mxCell id="31" value="movePiece(Piece, Coordinates)" style="html=1;verticalAlign=bottom;endArrow=block;" parent="1" source="5" target="86" edge="1">
                    <mxGeometry width="80" relative="1" as="geometry">
                        <mxPoint x="-320" y="200" as="sourcePoint"/>
                        <mxPoint x="-200" y="200" as="targetPoint"/>
                        <Array as="points">
                            <mxPoint x="-250" y="160"/>
                        </Array>
                    </mxGeometry>
                </mxCell>
                <mxCell id="32" value="notMyPiece()" style="html=1;verticalAlign=bottom;endArrow=block;" parent="1" source="86" target="4" edge="1">
                    <mxGeometry width="80" relative="1" as="geometry">
                        <mxPoint x="-270" y="250" as="sourcePoint"/>
                        <mxPoint x="-190" y="250" as="targetPoint"/>
                        <Array as="points">
                            <mxPoint x="-70" y="180"/>
                        </Array>
                    </mxGeometry>
                </mxCell>
                <mxCell id="36" value="movePiece(Piece, Coordinates)" style="html=1;verticalAlign=bottom;endArrow=block;" parent="1" source="6" target="5" edge="1">
                    <mxGeometry width="80" relative="1" as="geometry">
                        <mxPoint x="-390" y="130" as="sourcePoint"/>
                        <mxPoint x="-310" y="130" as="targetPoint"/>
                        <Array as="points">
                            <mxPoint x="-440" y="150"/>
                        </Array>
                    </mxGeometry>
                </mxCell>
                <mxCell id="37" value="Moves his Piece in illegal way" style="html=1;verticalAlign=bottom;endArrow=block;" parent="1" source="8" target="6" edge="1">
                    <mxGeometry x="-0.0483" width="80" relative="1" as="geometry">
                        <mxPoint x="-702" y="435" as="sourcePoint"/>
                        <mxPoint x="-510.50000000000045" y="435" as="targetPoint"/>
                        <Array as="points">
                            <mxPoint x="-570" y="300"/>
                        </Array>
                        <mxPoint as="offset"/>
                    </mxGeometry>
                </mxCell>
                <mxCell id="39" value="showMessage(&quot;Wrong Piece&quot;)" style="html=1;verticalAlign=bottom;endArrow=block;" parent="1" source="5" target="6" edge="1">
                    <mxGeometry width="80" relative="1" as="geometry">
                        <mxPoint x="-500" y="250" as="sourcePoint"/>
                        <mxPoint x="-420" y="250" as="targetPoint"/>
                        <Array as="points">
                            <mxPoint x="-400" y="230"/>
                        </Array>
                    </mxGeometry>
                </mxCell>
                <mxCell id="40" value="movePiece(Piece, Coordinates)" style="html=1;verticalAlign=bottom;endArrow=block;" parent="1" source="6" target="5" edge="1">
                    <mxGeometry width="80" relative="1" as="geometry">
                        <mxPoint x="-505.00000000000045" y="445" as="sourcePoint"/>
                        <mxPoint x="-330.50000000000045" y="445" as="targetPoint"/>
                        <Array as="points">
                            <mxPoint x="-410" y="310"/>
                        </Array>
                    </mxGeometry>
                </mxCell>
                <mxCell id="41" value="movePiece(Piece, Coordinates)" style="html=1;verticalAlign=bottom;endArrow=block;" parent="1" source="5" target="86" edge="1">
                    <mxGeometry width="80" relative="1" as="geometry">
                        <mxPoint x="-332" y="455" as="sourcePoint"/>
                        <mxPoint x="29.5" y="455" as="targetPoint"/>
                        <Array as="points">
                            <mxPoint x="-260" y="320"/>
                        </Array>
                    </mxGeometry>
                </mxCell>
                <mxCell id="43" value="recieveRequest()" style="html=1;verticalAlign=bottom;endArrow=block;" parent="1" source="26" target="2" edge="1">
                    <mxGeometry width="80" relative="1" as="geometry">
                        <mxPoint x="208.00000000000045" y="475" as="sourcePoint"/>
                        <mxPoint x="389.5" y="475" as="targetPoint"/>
                        <Array as="points">
                            <mxPoint x="280" y="380"/>
                        </Array>
                    </mxGeometry>
                </mxCell>
                <mxCell id="44" value="move(Player, Piece, Coordinates)" style="html=1;verticalAlign=bottom;endArrow=block;" parent="1" source="2" target="7" edge="1">
                    <mxGeometry width="80" relative="1" as="geometry">
                        <mxPoint x="388.00000000000045" y="485" as="sourcePoint"/>
                        <mxPoint x="569.5" y="485" as="targetPoint"/>
                        <Array as="points">
                            <mxPoint x="470" y="390"/>
                        </Array>
                    </mxGeometry>
                </mxCell>
                <mxCell id="45" value="IllegalMoveException" style="html=1;verticalAlign=bottom;endArrow=open;dashed=1;endSize=8;" parent="1" source="7" target="2" edge="1">
                    <mxGeometry relative="1" as="geometry">
                        <mxPoint x="569.5" y="505" as="sourcePoint"/>
                        <mxPoint x="388.00000000000045" y="505" as="targetPoint"/>
                        <Array as="points">
                            <mxPoint x="480" y="410"/>
                        </Array>
                    </mxGeometry>
                </mxCell>
                <mxCell id="48" value="reciveResponse()" style="html=1;verticalAlign=bottom;endArrow=block;" parent="1" source="2" target="26" edge="1">
                    <mxGeometry width="80" relative="1" as="geometry">
                        <mxPoint x="385.00000000000045" y="545" as="sourcePoint"/>
                        <mxPoint x="208.00000000000045" y="545" as="targetPoint"/>
                        <Array as="points">
                            <mxPoint x="330" y="450"/>
                        </Array>
                    </mxGeometry>
                </mxCell>
                <mxCell id="53" value="Moves his Piece in legal way" style="html=1;verticalAlign=bottom;endArrow=block;" parent="1" source="38" target="6" edge="1">
                    <mxGeometry x="-0.0483" width="80" relative="1" as="geometry">
                        <mxPoint x="-760" y="635" as="sourcePoint"/>
                        <mxPoint x="-510.50000000000045" y="635" as="targetPoint"/>
                        <Array as="points">
                            <mxPoint x="-570" y="550"/>
                        </Array>
                        <mxPoint as="offset"/>
                    </mxGeometry>
                </mxCell>
                <mxCell id="54" value="movePiece(Piece, Coordinates)" style="html=1;verticalAlign=bottom;endArrow=block;" parent="1" source="6" target="5" edge="1">
                    <mxGeometry width="80" relative="1" as="geometry">
                        <mxPoint x="-512" y="645" as="sourcePoint"/>
                        <mxPoint x="-330.50000000000045" y="645" as="targetPoint"/>
                        <Array as="points">
                            <mxPoint x="-410" y="560"/>
                        </Array>
                    </mxGeometry>
                </mxCell>
                <mxCell id="55" value="movePiece(Piece, Coordinates)" style="html=1;verticalAlign=bottom;endArrow=block;" parent="1" source="5" target="86" edge="1">
                    <mxGeometry width="80" relative="1" as="geometry">
                        <mxPoint x="-332" y="655" as="sourcePoint"/>
                        <mxPoint x="-150.5" y="655" as="targetPoint"/>
                        <Array as="points">
                            <mxPoint x="-239" y="570"/>
                        </Array>
                    </mxGeometry>
                </mxCell>
                <mxCell id="57" value="recieveRequest()" style="html=1;verticalAlign=bottom;endArrow=block;" parent="1" source="26" target="2" edge="1">
                    <mxGeometry width="80" relative="1" as="geometry">
                        <mxPoint x="208.00000000000045" y="675" as="sourcePoint"/>
                        <mxPoint x="389.5" y="675" as="targetPoint"/>
                        <Array as="points">
                            <mxPoint x="310" y="630"/>
                        </Array>
                    </mxGeometry>
                </mxCell>
                <mxCell id="58" value="move(Player, Piece, Coordinates)" style="html=1;verticalAlign=bottom;endArrow=block;" parent="1" source="2" target="7" edge="1">
                    <mxGeometry width="80" relative="1" as="geometry">
                        <mxPoint x="388.00000000000045" y="685" as="sourcePoint"/>
                        <mxPoint x="565.0000000000005" y="685" as="targetPoint"/>
                        <Array as="points">
                            <mxPoint x="520" y="640"/>
                        </Array>
                    </mxGeometry>
                </mxCell>
                <mxCell id="59" value="[no exception thrown]" style="html=1;verticalAlign=bottom;endArrow=open;dashed=1;endSize=8;" parent="1" source="7" target="2" edge="1">
                    <mxGeometry relative="1" as="geometry">
                        <mxPoint x="569.5" y="705" as="sourcePoint"/>
                        <mxPoint x="388.00000000000045" y="705" as="targetPoint"/>
                        <Array as="points">
                            <mxPoint x="480" y="660"/>
                        </Array>
                    </mxGeometry>
                </mxCell>
                <mxCell id="62" value="reciveResponse()" style="html=1;verticalAlign=bottom;endArrow=block;" parent="1" source="2" target="26" edge="1">
                    <mxGeometry width="80" relative="1" as="geometry">
                        <mxPoint x="389.5" y="745" as="sourcePoint"/>
                        <mxPoint x="208.00000000000045" y="745" as="targetPoint"/>
                        <Array as="points">
                            <mxPoint x="350" y="700"/>
                        </Array>
                    </mxGeometry>
                </mxCell>
                <mxCell id="65" value="Cancells current move" style="html=1;verticalAlign=bottom;endArrow=block;" parent="1" source="8" target="6" edge="1">
                    <mxGeometry x="-0.0483" width="80" relative="1" as="geometry">
                        <mxPoint x="-702" y="815" as="sourcePoint"/>
                        <mxPoint x="-510.50000000000045" y="815" as="targetPoint"/>
                        <Array as="points">
                            <mxPoint x="-590" y="780"/>
                        </Array>
                        <mxPoint as="offset"/>
                    </mxGeometry>
                </mxCell>
                <mxCell id="67" value="sendCancelMoveRequest()" style="html=1;verticalAlign=bottom;endArrow=block;" parent="1" source="6" target="5" edge="1">
                    <mxGeometry width="80" relative="1" as="geometry">
                        <mxPoint x="-512" y="825" as="sourcePoint"/>
                        <mxPoint x="-330.50000000000045" y="825" as="targetPoint"/>
                        <Array as="points">
                            <mxPoint x="-390" y="790"/>
                        </Array>
                    </mxGeometry>
                </mxCell>
                <mxCell id="68" value="recieveRequest()" style="html=1;verticalAlign=bottom;endArrow=block;" parent="1" source="26" target="2" edge="1">
                    <mxGeometry width="80" relative="1" as="geometry">
                        <mxPoint x="215.00000000000045" y="845" as="sourcePoint"/>
                        <mxPoint x="389.5" y="845" as="targetPoint"/>
                        <Array as="points">
                            <mxPoint x="331" y="820"/>
                        </Array>
                    </mxGeometry>
                </mxCell>
                <mxCell id="69" value="cancelMove(Player)" style="html=1;verticalAlign=bottom;endArrow=block;" parent="1" source="2" target="7" edge="1">
                    <mxGeometry width="80" relative="1" as="geometry">
                        <mxPoint x="388.00000000000045" y="855" as="sourcePoint"/>
                        <mxPoint x="569.5" y="855" as="targetPoint"/>
                        <Array as="points">
                            <mxPoint x="490" y="830"/>
                        </Array>
                    </mxGeometry>
                </mxCell>
                <mxCell id="70" value="[no exception thrown]" style="html=1;verticalAlign=bottom;endArrow=open;dashed=1;endSize=8;" parent="1" source="7" target="2" edge="1">
                    <mxGeometry relative="1" as="geometry">
                        <mxPoint x="569.5" y="875" as="sourcePoint"/>
                        <mxPoint x="388.00000000000045" y="875" as="targetPoint"/>
                        <Array as="points">
                            <mxPoint x="500" y="850"/>
                        </Array>
                    </mxGeometry>
                </mxCell>
                <mxCell id="72" value="reciveResponse()" style="html=1;verticalAlign=bottom;endArrow=block;" parent="1" source="2" target="26" edge="1">
                    <mxGeometry width="80" relative="1" as="geometry">
                        <mxPoint x="389.5" y="915" as="sourcePoint"/>
                        <mxPoint x="208.00000000000045" y="915" as="targetPoint"/>
                        <Array as="points">
                            <mxPoint x="330" y="890"/>
                        </Array>
                    </mxGeometry>
                </mxCell>
                <mxCell id="74" value="setState(Board)" style="html=1;verticalAlign=bottom;startArrow=none;startFill=0;endArrow=block;startSize=8;" parent="1" source="5" target="6" edge="1">
                    <mxGeometry width="60" relative="1" as="geometry">
                        <mxPoint x="-330.50000000000045" y="935" as="sourcePoint"/>
                        <mxPoint x="-512" y="935" as="targetPoint"/>
                        <Array as="points">
                            <mxPoint x="-390" y="910"/>
                        </Array>
                    </mxGeometry>
                </mxCell>
                <mxCell id="75" value="Accepts current move" style="html=1;verticalAlign=bottom;endArrow=block;" parent="1" source="38" target="6" edge="1">
                    <mxGeometry x="-0.0483" width="80" relative="1" as="geometry">
                        <mxPoint x="-680" y="985" as="sourcePoint"/>
                        <mxPoint x="-510.50000000000045" y="985" as="targetPoint"/>
                        <Array as="points">
                            <mxPoint x="-580" y="960"/>
                        </Array>
                        <mxPoint as="offset"/>
                    </mxGeometry>
                </mxCell>
                <mxCell id="76" value="sendAcceptMoveRequest()" style="html=1;verticalAlign=bottom;endArrow=block;" parent="1" source="6" target="5" edge="1">
                    <mxGeometry width="80" relative="1" as="geometry">
                        <mxPoint x="-512" y="995" as="sourcePoint"/>
                        <mxPoint x="-330.50000000000045" y="995" as="targetPoint"/>
                        <Array as="points">
                            <mxPoint x="-410" y="970"/>
                        </Array>
                    </mxGeometry>
                </mxCell>
                <mxCell id="78" value="recieveRequest()" style="html=1;verticalAlign=bottom;endArrow=block;" parent="1" edge="1" target="2" source="26">
                    <mxGeometry width="80" relative="1" as="geometry">
                        <mxPoint x="208.00000000000045" y="1015" as="sourcePoint"/>
                        <mxPoint x="389.5" y="1015" as="targetPoint"/>
                        <Array as="points">
                            <mxPoint x="310" y="1000"/>
                        </Array>
                    </mxGeometry>
                </mxCell>
                <mxCell id="79" value="acceptMove(Player)" style="html=1;verticalAlign=bottom;endArrow=block;" parent="1" edge="1" target="7" source="2">
                    <mxGeometry width="80" relative="1" as="geometry">
                        <mxPoint x="388.00000000000045" y="1025" as="sourcePoint"/>
                        <mxPoint x="569.5" y="1025" as="targetPoint"/>
                        <Array as="points">
                            <mxPoint x="520" y="1010"/>
                        </Array>
                    </mxGeometry>
                </mxCell>
                <mxCell id="80" value="sendMoveAcceptedMessage()" style="html=1;verticalAlign=bottom;startArrow=none;startFill=0;endArrow=block;startSize=8;" parent="1" edge="1" target="2" source="2">
                    <mxGeometry x="1" y="31" width="60" relative="1" as="geometry">
                        <mxPoint x="389.5" y="1035" as="sourcePoint"/>
                        <mxPoint x="389.5" y="1055" as="targetPoint"/>
                        <Array as="points">
                            <mxPoint x="340" y="1040"/>
                            <mxPoint x="340" y="1060"/>
                        </Array>
                        <mxPoint x="30" y="31" as="offset"/>
                    </mxGeometry>
                </mxCell>
                <mxCell id="81" value="reciveResponse()" style="html=1;verticalAlign=bottom;endArrow=block;" parent="1" edge="1" target="26" source="2">
                    <mxGeometry width="80" relative="1" as="geometry">
                        <mxPoint x="389.5" y="1065" as="sourcePoint"/>
                        <mxPoint x="208.00000000000045" y="1065" as="targetPoint"/>
                        <Array as="points">
                            <mxPoint x="320" y="1070"/>
                        </Array>
                    </mxGeometry>
                </mxCell>
                <mxCell id="85" value="showMessage(&quot;End of your turn&quot;)" style="html=1;verticalAlign=bottom;endArrow=block;" parent="1" edge="1" target="6" source="5">
                    <mxGeometry width="80" relative="1" as="geometry">
                        <mxPoint x="-330.50000000000045" y="1105" as="sourcePoint"/>
                        <mxPoint x="-512" y="1105" as="targetPoint"/>
                        <Array as="points">
                            <mxPoint x="-419" y="1100"/>
                        </Array>
                    </mxGeometry>
                </mxCell>
                <mxCell id="86" value=":Mediator" style="shape=umlLifeline;perimeter=lifelinePerimeter;whiteSpace=wrap;html=1;container=1;collapsible=0;recursiveResize=0;outlineConnect=0;" parent="1" vertex="1">
                    <mxGeometry x="-20" y="60" width="100" height="1420" as="geometry"/>
                </mxCell>
                <mxCell id="87" value="" style="html=1;points=[];perimeter=orthogonalPerimeter;" parent="86" vertex="1">
                    <mxGeometry x="45" y="40" width="10" height="1340" as="geometry"/>
                </mxCell>
                <mxCell id="42" value="sendMoveRequest&lt;br&gt;(Player, Piece, Coordinates)" style="html=1;verticalAlign=bottom;endArrow=block;" parent="1" source="86" target="26" edge="1">
                    <mxGeometry width="80" relative="1" as="geometry">
                        <mxPoint x="28.000000000000455" y="465" as="sourcePoint"/>
                        <mxPoint x="209.5" y="465" as="targetPoint"/>
                        <Array as="points">
                            <mxPoint x="100" y="370"/>
                        </Array>
                    </mxGeometry>
                </mxCell>
                <mxCell id="56" value="sendMoveRequest&lt;br&gt;(Player, Piece, Coordinates)" style="html=1;verticalAlign=bottom;endArrow=block;" parent="1" source="86" target="26" edge="1">
                    <mxGeometry width="80" relative="1" as="geometry">
                        <mxPoint x="-151.99999999999955" y="665" as="sourcePoint"/>
                        <mxPoint x="209.5" y="665" as="targetPoint"/>
                        <Array as="points">
                            <mxPoint x="110" y="620"/>
                        </Array>
                    </mxGeometry>
                </mxCell>
                <mxCell id="66" value="sendCancelMoveRequest(Player)" style="html=1;verticalAlign=bottom;endArrow=block;" parent="1" source="86" target="26" edge="1">
                    <mxGeometry width="80" relative="1" as="geometry">
                        <mxPoint x="-332" y="835" as="sourcePoint"/>
                        <mxPoint x="209.5" y="835" as="targetPoint"/>
                        <Array as="points">
                            <mxPoint x="140" y="810"/>
                        </Array>
                    </mxGeometry>
                </mxCell>
                <mxCell id="73" value="cnacelMove(Board)" style="html=1;verticalAlign=bottom;endArrow=block;" parent="1" source="26" target="5" edge="1">
                    <mxGeometry width="80" relative="1" as="geometry">
                        <mxPoint x="209.5" y="925" as="sourcePoint"/>
                        <mxPoint x="-332" y="925" as="targetPoint"/>
                        <Array as="points">
                            <mxPoint x="-99" y="900"/>
                        </Array>
                    </mxGeometry>
                </mxCell>
                <mxCell id="77" value="sendAcceptMoveRequest()" style="html=1;verticalAlign=bottom;endArrow=block;" parent="1" source="5" target="86" edge="1">
                    <mxGeometry width="80" relative="1" as="geometry">
                        <mxPoint x="-332" y="1005" as="sourcePoint"/>
                        <mxPoint x="30" y="1000" as="targetPoint"/>
                        <Array as="points">
                            <mxPoint x="-60" y="980"/>
                        </Array>
                    </mxGeometry>
                </mxCell>
                <mxCell id="50" value="illegalMove()" style="html=1;verticalAlign=bottom;endArrow=block;" parent="1" source="26" target="86" edge="1">
                    <mxGeometry width="80" relative="1" as="geometry">
                        <mxPoint x="209.5" y="555" as="sourcePoint"/>
                        <mxPoint x="-332" y="555" as="targetPoint"/>
                        <Array as="points">
                            <mxPoint x="110" y="460"/>
                        </Array>
                    </mxGeometry>
                </mxCell>
                <mxCell id="88" value="true" style="html=1;verticalAlign=bottom;endArrow=open;dashed=1;endSize=8;" parent="1" source="4" target="86" edge="1">
                    <mxGeometry relative="1" as="geometry">
                        <mxPoint x="-100" y="230" as="sourcePoint"/>
                        <mxPoint x="-280" y="230" as="targetPoint"/>
                        <Array as="points">
                            <mxPoint x="-70" y="200"/>
                        </Array>
                    </mxGeometry>
                </mxCell>
                <mxCell id="89" value="showMessage(&quot;Wrong Piece&quot;)" style="html=1;verticalAlign=bottom;endArrow=block;" parent="1" source="86" target="5" edge="1">
                    <mxGeometry width="80" relative="1" as="geometry">
                        <mxPoint x="-70" y="230" as="sourcePoint"/>
                        <mxPoint x="-250" y="230" as="targetPoint"/>
                        <Array as="points">
                            <mxPoint x="-159" y="220"/>
                        </Array>
                    </mxGeometry>
                </mxCell>
                <mxCell id="90" value="false" style="html=1;verticalAlign=bottom;endArrow=open;dashed=1;endSize=8;" parent="1" source="86" target="5" edge="1">
                    <mxGeometry relative="1" as="geometry">
                        <mxPoint x="-210" y="250" as="sourcePoint"/>
                        <mxPoint x="-30" y="250" as="targetPoint"/>
                        <Array as="points">
                            <mxPoint x="-129" y="240"/>
                        </Array>
                    </mxGeometry>
                </mxCell>
                <mxCell id="91" value="false" style="html=1;verticalAlign=bottom;endArrow=open;dashed=1;endSize=8;" parent="1" source="5" target="6" edge="1">
                    <mxGeometry relative="1" as="geometry">
                        <mxPoint x="-280" y="290" as="sourcePoint"/>
                        <mxPoint x="-639.8333333333335" y="290" as="targetPoint"/>
                        <Array as="points">
                            <mxPoint x="-438" y="250"/>
                        </Array>
                    </mxGeometry>
                </mxCell>
                <mxCell id="92" value="notMyPiece()" style="html=1;verticalAlign=bottom;endArrow=block;" parent="1" source="86" target="4" edge="1">
                    <mxGeometry width="80" relative="1" as="geometry">
                        <mxPoint x="20.180000000000227" y="360" as="sourcePoint"/>
                        <mxPoint x="-159.99647058823513" y="360" as="targetPoint"/>
                        <Array as="points">
                            <mxPoint x="-79" y="340"/>
                        </Array>
                    </mxGeometry>
                </mxCell>
                <mxCell id="93" value="false" style="html=1;verticalAlign=bottom;endArrow=open;dashed=1;endSize=8;" parent="1" source="4" target="86" edge="1">
                    <mxGeometry relative="1" as="geometry">
                        <mxPoint x="-119.99647058823513" y="380" as="sourcePoint"/>
                        <mxPoint x="60.18000000000023" y="380" as="targetPoint"/>
                        <Array as="points">
                            <mxPoint x="-39" y="360"/>
                        </Array>
                    </mxGeometry>
                </mxCell>
                <mxCell id="47" value="sendIllegalMoveMessage()" style="html=1;verticalAlign=bottom;startArrow=none;startFill=0;endArrow=block;startSize=8;" parent="1" source="2" target="2" edge="1">
                    <mxGeometry x="1" y="25" width="60" relative="1" as="geometry">
                        <mxPoint x="385.00000000000045" y="515" as="sourcePoint"/>
                        <mxPoint x="385.00000000000045" y="535" as="targetPoint"/>
                        <Array as="points">
                            <mxPoint x="340" y="420"/>
                            <mxPoint x="340" y="440"/>
                        </Array>
                        <mxPoint x="25" y="25" as="offset"/>
                    </mxGeometry>
                </mxCell>
                <mxCell id="94" value="showMessage(&quot;Illegal move&quot;)" style="html=1;verticalAlign=bottom;endArrow=block;" parent="1" source="86" target="5" edge="1">
                    <mxGeometry width="80" relative="1" as="geometry">
                        <mxPoint x="20" y="480" as="sourcePoint"/>
                        <mxPoint x="-340" y="480" as="targetPoint"/>
                        <Array as="points">
                            <mxPoint x="-168" y="470"/>
                        </Array>
                    </mxGeometry>
                </mxCell>
                <mxCell id="95" value="false" style="html=1;verticalAlign=bottom;endArrow=open;dashed=1;endSize=8;" parent="1" source="86" target="5" edge="1">
                    <mxGeometry relative="1" as="geometry">
                        <mxPoint x="49.83" y="490" as="sourcePoint"/>
                        <mxPoint x="-310.0033333333335" y="490" as="targetPoint"/>
                        <Array as="points">
                            <mxPoint x="-109" y="490"/>
                        </Array>
                    </mxGeometry>
                </mxCell>
                <mxCell id="96" value="showMessage(&quot;Illegal move&quot;)" style="html=1;verticalAlign=bottom;endArrow=block;" parent="1" source="5" target="6" edge="1">
                    <mxGeometry width="80" relative="1" as="geometry">
                        <mxPoint x="-340" y="480" as="sourcePoint"/>
                        <mxPoint x="-520" y="480" as="targetPoint"/>
                        <Array as="points">
                            <mxPoint x="-409" y="480"/>
                        </Array>
                    </mxGeometry>
                </mxCell>
                <mxCell id="97" value="false" style="html=1;verticalAlign=bottom;endArrow=open;dashed=1;endSize=8;" parent="1" source="5" target="6" edge="1">
                    <mxGeometry relative="1" as="geometry">
                        <mxPoint x="-323" y="500" as="sourcePoint"/>
                        <mxPoint x="-503" y="500" as="targetPoint"/>
                        <Array as="points">
                            <mxPoint x="-440" y="500"/>
                        </Array>
                    </mxGeometry>
                </mxCell>
                <mxCell id="98" value="notMyPiece()" style="html=1;verticalAlign=bottom;endArrow=block;" parent="1" source="87" target="4" edge="1">
                    <mxGeometry width="80" relative="1" as="geometry">
                        <mxPoint x="50.18000000000023" y="600" as="sourcePoint"/>
                        <mxPoint x="-129.99647058823513" y="600" as="targetPoint"/>
                        <Array as="points">
                            <mxPoint x="-58" y="590"/>
                        </Array>
                    </mxGeometry>
                </mxCell>
                <mxCell id="99" value="false" style="html=1;verticalAlign=bottom;endArrow=open;dashed=1;endSize=8;" parent="1" source="4" target="86" edge="1">
                    <mxGeometry relative="1" as="geometry">
                        <mxPoint x="-129.99647058823513" y="620" as="sourcePoint"/>
                        <mxPoint x="50.18000000000023" y="620" as="targetPoint"/>
                        <Array as="points">
                            <mxPoint x="-18" y="610"/>
                        </Array>
                    </mxGeometry>
                </mxCell>
                <mxCell id="61" value="sendAcceptedMoveMessage()" style="html=1;verticalAlign=bottom;startArrow=none;startFill=0;endArrow=block;startSize=8;" parent="1" source="2" target="2" edge="1">
                    <mxGeometry x="1" y="30" width="60" relative="1" as="geometry">
                        <mxPoint x="385.00000000000045" y="715" as="sourcePoint"/>
                        <mxPoint x="390" y="735" as="targetPoint"/>
                        <Array as="points">
                            <mxPoint x="340" y="670"/>
                            <mxPoint x="340" y="690"/>
                        </Array>
                        <mxPoint x="30" y="30" as="offset"/>
                    </mxGeometry>
                </mxCell>
                <mxCell id="100" value="true" style="html=1;verticalAlign=bottom;endArrow=open;dashed=1;endSize=8;" parent="1" source="86" target="5" edge="1">
                    <mxGeometry relative="1" as="geometry">
                        <mxPoint x="39.50000000000023" y="740" as="sourcePoint"/>
                        <mxPoint x="-320.67647058823536" y="740" as="targetPoint"/>
                        <Array as="points">
                            <mxPoint x="-99" y="720"/>
                        </Array>
                    </mxGeometry>
                </mxCell>
                <mxCell id="101" value="true" style="html=1;verticalAlign=bottom;endArrow=open;dashed=1;endSize=8;" parent="1" source="5" target="6" edge="1">
                    <mxGeometry relative="1" as="geometry">
                        <mxPoint x="-299.81999999999977" y="750" as="sourcePoint"/>
                        <mxPoint x="-479.99647058823535" y="750" as="targetPoint"/>
                        <Array as="points">
                            <mxPoint x="-409" y="730"/>
                        </Array>
                    </mxGeometry>
                </mxCell>
                <mxCell id="71" value="sendMoveCnaceledMessage(Board)" style="html=1;verticalAlign=bottom;startArrow=none;startFill=0;endArrow=block;startSize=8;" parent="1" source="2" target="2" edge="1">
                    <mxGeometry x="1" y="50" width="60" relative="1" as="geometry">
                        <mxPoint x="385.00000000000045" y="885" as="sourcePoint"/>
                        <mxPoint x="389.5" y="905" as="targetPoint"/>
                        <Array as="points">
                            <mxPoint x="340" y="860"/>
                            <mxPoint x="340" y="880"/>
                        </Array>
                        <mxPoint x="50" y="50" as="offset"/>
                    </mxGeometry>
                </mxCell>
                <mxCell id="102" value="true" style="html=1;verticalAlign=bottom;endArrow=open;dashed=1;endSize=8;" edge="1" parent="1" source="26" target="86">
                    <mxGeometry relative="1" as="geometry">
                        <mxPoint x="190.18000000000023" y="680" as="sourcePoint"/>
                        <mxPoint x="10.003529411764646" y="680" as="targetPoint"/>
                        <Array as="points">
                            <mxPoint x="112" y="710"/>
                        </Array>
                    </mxGeometry>
                </mxCell>
                <mxCell id="103" value="sendCancelMoveRequest()" style="html=1;verticalAlign=bottom;endArrow=block;" edge="1" parent="1" source="5" target="86">
                    <mxGeometry width="80" relative="1" as="geometry">
                        <mxPoint x="-249.99647058823535" y="830" as="sourcePoint"/>
                        <mxPoint x="-69.81999999999977" y="830" as="targetPoint"/>
                        <Array as="points">
                            <mxPoint x="-129" y="800"/>
                        </Array>
                    </mxGeometry>
                </mxCell>
                <mxCell id="104" value="sendAcceptMoveRequest(Player)" style="html=1;verticalAlign=bottom;endArrow=block;" edge="1" parent="1" source="86" target="26">
                    <mxGeometry width="80" relative="1" as="geometry">
                        <mxPoint x="50" y="1000" as="sourcePoint"/>
                        <mxPoint x="230" y="1000" as="targetPoint"/>
                        <Array as="points">
                            <mxPoint x="151" y="990"/>
                        </Array>
                    </mxGeometry>
                </mxCell>
                <mxCell id="105" value="[no exception thrown]" style="html=1;verticalAlign=bottom;endArrow=open;dashed=1;endSize=8;" edge="1" parent="1" source="7" target="2">
                    <mxGeometry relative="1" as="geometry">
                        <mxPoint x="569.57" y="1030" as="sourcePoint"/>
                        <mxPoint x="389.9985714285713" y="1030" as="targetPoint"/>
                        <Array as="points">
                            <mxPoint x="500" y="1030"/>
                        </Array>
                    </mxGeometry>
                </mxCell>
                <mxCell id="106" value="true" style="html=1;verticalAlign=bottom;endArrow=open;dashed=1;endSize=8;" edge="1" parent="1" source="26" target="86">
                    <mxGeometry relative="1" as="geometry">
                        <mxPoint x="240" y="1110" as="sourcePoint"/>
                        <mxPoint x="60" y="1110" as="targetPoint"/>
                        <Array as="points">
                            <mxPoint x="143" y="1080"/>
                        </Array>
                    </mxGeometry>
                </mxCell>
                <mxCell id="108" value="showMessage(&quot;End of your turn&quot;)" style="html=1;verticalAlign=bottom;endArrow=block;" edge="1" parent="1" source="86" target="5">
                    <mxGeometry width="80" relative="1" as="geometry">
                        <mxPoint x="-80" y="1080" as="sourcePoint"/>
                        <mxPoint x="-260" y="1080" as="targetPoint"/>
                        <Array as="points">
                            <mxPoint x="-168" y="1090"/>
                        </Array>
                    </mxGeometry>
                </mxCell>
            </root>
        </mxGraphModel>
    </diagram>
</mxfile>